# xmcd
#
# Track frame offsets:
#	150
#	12023
#	23442
#	42698
#	55184
#	72677
#	84641
#	100589
#	112621
#	128078
#	140199
#	159614
#
# Disc length: 2278 seconds
#
# Revision: 0
# Processed by: cddbd v1.5.2PL0 Copyright (c) Steve Scherf et al.
# Submitted via: EasyCDDAExtractor 16.0.1.1
#
DISCID=9a08e40c
DTITLE=Honi Deaton and Dream - Promise To A Soldier
DYEAR=2005
DGENRE=Bluegrass
TTITLE0=River Of Tears
TTITLE1=Walking After Midnight
TTITLE2=Send Me The Pillow That You Dream On
TTITLE3=Cowboy Sweetheart
TTITLE4=All Alone
TTITLE5=I'm Callin' Jesus
TTITLE6=It Amazes Me
TTITLE7=Glory Glory
TTITLE8=Promise To A Soldier
TTITLE9=I'm Gonna Build On That Shore
TTITLE10=Am I Losing You
TTITLE11=Here I Am Lord
EXTD=
EXTT0=
EXTT1=
EXTT2=
EXTT3=
EXTT4=
EXTT5=
EXTT6=
EXTT7=
EXTT8=
EXTT9=
EXTT10=
EXTT11=
PLAYORDER=
